<svg width="16" height="16" viewBox="0 0 16 16" fill="none" xmlns="http://www.w3.org/2000/svg">
<path d="M14.9375 7.99998H5.67125M5.67125 7.99998C5.67125 8.43361 5.49824 8.84948 5.19162 9.1561C4.885 9.46272 4.46913 9.63498 4.0355 9.63498C3.60187 9.63498 3.186 9.46272 2.87938 9.1561C2.57276 8.84948 2.4005 8.43361 2.4005 7.99998M5.67125 7.99998C5.67125 7.56635 5.49824 7.15048 5.19162 6.84386C4.885 6.53724 4.46913 6.36498 4.0355 6.36498C3.60187 6.36498 3.186 6.53724 2.87938 6.84386C2.57276 7.15048 2.4005 7.56635 2.4005 7.99998M2.4005 7.99998H1.0625M14.9375 12.9552H10.6265M10.6265 12.9552C10.6265 13.389 10.4538 13.8053 10.1471 14.112C9.84044 14.4187 9.42448 14.591 8.99075 14.591C8.55712 14.591 8.14125 14.418 7.83463 14.1113C7.52801 13.8047 7.35575 13.3889 7.35575 12.9552M10.6265 12.9552C10.6265 12.5215 10.4538 12.1059 10.1471 11.7992C9.84044 11.4925 9.42448 11.3202 8.99075 11.3202C8.55712 11.3202 8.14125 11.4925 7.83463 11.7991C7.52801 12.1057 7.35575 12.5216 7.35575 12.9552M7.35575 12.9552H1.0625M14.9375 3.04473H12.6088M12.6088 3.04473C12.6088 3.25944 12.5657 3.47205 12.4835 3.67042C12.4014 3.86878 12.2809 4.04902 12.1291 4.20085C11.9773 4.35267 11.7971 4.47311 11.5987 4.55527C11.4003 4.63744 11.1877 4.67973 10.973 4.67973C10.5394 4.67973 10.1235 4.50747 9.81688 4.20085C9.51026 3.89423 9.338 3.47836 9.338 3.04473M12.6088 3.04473C12.6088 2.83002 12.5657 2.61741 12.4835 2.41904C12.4014 2.22067 12.2809 2.04043 12.1291 1.88861C11.9773 1.73679 11.7971 1.61635 11.5987 1.53419C11.4003 1.45202 11.1877 1.40973 10.973 1.40973C10.5394 1.40973 10.1235 1.58199 9.81688 1.88861C9.51026 2.19523 9.338 2.6111 9.338 3.04473M9.338 3.04473H1.0625" stroke="#0512F5" stroke-width="1.5" stroke-miterlimit="10" stroke-linecap="round"/>
</svg>
