<svg width="16" height="18" viewBox="0 0 16 18" fill="none" xmlns="http://www.w3.org/2000/svg">
<path d="M12.6667 6.2C12.6667 4.82087 12.175 3.49823 11.2998 2.52305C10.4246 1.54785 9.23768 1 8 1C6.76232 1 5.57534 1.54785 4.70017 2.52305C3.825 3.49823 3.33333 4.82087 3.33333 6.2C3.33333 12.2667 1 14 1 14H15C15 14 12.6667 12.2667 12.6667 6.2Z" stroke="#0512F5" stroke-width="1.5" stroke-linecap="round" stroke-linejoin="round"/>
<path d="M10 16C9.84757 16.3042 9.62882 16.5566 9.36549 16.7321C9.10225 16.9076 8.80382 17 8.5 17C8.19618 17 7.89775 16.9076 7.63451 16.7321C7.37127 16.5566 7.15243 16.3042 7 16" stroke="#0512F5" stroke-width="1.5" stroke-linecap="round" stroke-linejoin="round"/>
</svg>
